<svg version="1.1" width="1440" height="560" preserveAspectRatio="none" viewBox="0 0 1440 560">
    <g mask="url(&quot;#SvgjsMask4806&quot;)" fill="none">
        <g mask="url(&quot;#SvgjsMask4808&quot;)">
            <path d="M712 -8L712 8" stroke="url(#SvgjsLinearGradient4807)" stroke-width="2.67"></path>
            <path d="M708 8 a4 4 0 1 0 8 0 a4 4 0 1 0 -8 0z" fill="url(#SvgjsLinearGradient4807)"></path>
            <path d="M744 40L728 56M744 8L728 24L728 40M744 88L744 104L744 120M744 -8L744 8L744 24L744 40L744 56L744 72L744 88L728 104L728 120L728 136" stroke="url(#SvgjsLinearGradient4807)" stroke-width="2.67"></path>
            <path d="M724 136 a4 4 0 1 0 8 0 a4 4 0 1 0 -8 0zM724 56 a4 4 0 1 0 8 0 a4 4 0 1 0 -8 0zM724 40 a4 4 0 1 0 8 0 a4 4 0 1 0 -8 0zM740 120 a4 4 0 1 0 8 0 a4 4 0 1 0 -8 0z" fill="url(#SvgjsLinearGradient4807)"></path>
            <path d="M760 8L760 24L760 40M776 72L760 88L760 104L760 120L760 136M776 56L760 72M760 -8L760 8L776 24L776 40L776 56L776 72L776 88" stroke="url(#SvgjsLinearGradient4807)" stroke-width="2.67"></path>
            <path d="M772 88 a4 4 0 1 0 8 0 a4 4 0 1 0 -8 0zM756 40 a4 4 0 1 0 8 0 a4 4 0 1 0 -8 0zM756 136 a4 4 0 1 0 8 0 a4 4 0 1 0 -8 0zM756 72 a4 4 0 1 0 8 0 a4 4 0 1 0 -8 0z" fill="url(#SvgjsLinearGradient4807)"></path>
            <path d="M680 8L680 24L680 40L680 56M696 24L712 40L712 56M680 -8L680 8L696 24L696 40" stroke="url(#SvgjsLinearGradient4807)" stroke-width="2.67"></path>
            <path d="M692 40 a4 4 0 1 0 8 0 a4 4 0 1 0 -8 0zM676 56 a4 4 0 1 0 8 0 a4 4 0 1 0 -8 0zM708 56 a4 4 0 1 0 8 0 a4 4 0 1 0 -8 0z" fill="url(#SvgjsLinearGradient4807)"></path>
            <path d="M792 72L808 88L808 104L808 120L808 136M776 -8L776 8L792 24L792 40L792 56L792 72L792 88L792 104" stroke="url(#SvgjsLinearGradient4807)" stroke-width="2.67"></path>
            <path d="M788 104 a4 4 0 1 0 8 0 a4 4 0 1 0 -8 0zM804 136 a4 4 0 1 0 8 0 a4 4 0 1 0 -8 0z" fill="url(#SvgjsLinearGradient4807)"></path>
            <path d="M664 88L680 104L680 120L664 136M664 72L648 88M664 40L648 56L648 72M664 -8L664 8L664 24L664 40L664 56L664 72L664 88L664 104" stroke="url(#SvgjsLinearGradient4807)" stroke-width="2.67"></path>
            <path d="M660 104 a4 4 0 1 0 8 0 a4 4 0 1 0 -8 0zM660 136 a4 4 0 1 0 8 0 a4 4 0 1 0 -8 0zM644 88 a4 4 0 1 0 8 0 a4 4 0 1 0 -8 0zM644 72 a4 4 0 1 0 8 0 a4 4 0 1 0 -8 0z" fill="url(#SvgjsLinearGradient4807)"></path>
            <path d="M792 -8L808 8L808 24L808 40L808 56" stroke="url(#SvgjsLinearGradient4807)" stroke-width="2.67"></path>
            <path d="M804 56 a4 4 0 1 0 8 0 a4 4 0 1 0 -8 0z" fill="url(#SvgjsLinearGradient4807)"></path>
            <path d="M648 -8L648 8" stroke="url(#SvgjsLinearGradient4807)" stroke-width="2.67"></path>
            <path d="M644 8 a4 4 0 1 0 8 0 a4 4 0 1 0 -8 0z" fill="url(#SvgjsLinearGradient4807)"></path>
            <path d="M824 120L824 136M808 -8L824 8L824 24L824 40L824 56L824 72L824 88L824 104L824 120L840 136" stroke="url(#SvgjsLinearGradient4807)" stroke-width="2.67"></path>
            <path d="M836 136 a4 4 0 1 0 8 0 a4 4 0 1 0 -8 0zM820 136 a4 4 0 1 0 8 0 a4 4 0 1 0 -8 0z" fill="url(#SvgjsLinearGradient4807)"></path>
            <path d="M632 88L632 104L632 120M632 24L648 40M632 -8L632 8L632 24L632 40L632 56L632 72L632 88L648 104L648 120" stroke="url(#SvgjsLinearGradient4807)" stroke-width="2.67"></path>
            <path d="M644 120 a4 4 0 1 0 8 0 a4 4 0 1 0 -8 0zM628 120 a4 4 0 1 0 8 0 a4 4 0 1 0 -8 0zM644 40 a4 4 0 1 0 8 0 a4 4 0 1 0 -8 0z" fill="url(#SvgjsLinearGradient4807)"></path>
            <path d="M840 56L856 72L856 88M840 40L856 56L872 72M824 -8L840 8L840 24L840 40L840 56L840 72L840 88L840 104L840 120" stroke="url(#SvgjsLinearGradient4807)" stroke-width="2.67"></path>
            <path d="M836 120 a4 4 0 1 0 8 0 a4 4 0 1 0 -8 0zM852 88 a4 4 0 1 0 8 0 a4 4 0 1 0 -8 0zM868 72 a4 4 0 1 0 8 0 a4 4 0 1 0 -8 0z" fill="url(#SvgjsLinearGradient4807)"></path>
            <path d="M616 72L600 88L600 104M616 56L600 72M616 -8L616 8L616 24L616 40L616 56L616 72L616 88L616 104L616 120" stroke="url(#SvgjsLinearGradient4807)" stroke-width="2.67"></path>
            <path d="M612 120 a4 4 0 1 0 8 0 a4 4 0 1 0 -8 0zM596 104 a4 4 0 1 0 8 0 a4 4 0 1 0 -8 0zM596 72 a4 4 0 1 0 8 0 a4 4 0 1 0 -8 0z" fill="url(#SvgjsLinearGradient4807)"></path>
            <path d="M888 104L872 120M888 88L872 104L856 120L856 136M840 -8L856 8L856 24L872 40L888 56L888 72L888 88L888 104L888 120" stroke="url(#SvgjsLinearGradient4807)" stroke-width="2.67"></path>
            <path d="M884 120 a4 4 0 1 0 8 0 a4 4 0 1 0 -8 0zM868 120 a4 4 0 1 0 8 0 a4 4 0 1 0 -8 0zM852 136 a4 4 0 1 0 8 0 a4 4 0 1 0 -8 0z" fill="url(#SvgjsLinearGradient4807)"></path>
            <path d="M600 -8L600 8L600 24L600 40L584 56" stroke="url(#SvgjsLinearGradient4807)" stroke-width="2.67"></path>
            <path d="M580 56 a4 4 0 1 0 8 0 a4 4 0 1 0 -8 0z" fill="url(#SvgjsLinearGradient4807)"></path>
            <path d="M856 -8L872 8L872 24L888 40" stroke="url(#SvgjsLinearGradient4807)" stroke-width="2.67"></path>
            <path d="M884 40 a4 4 0 1 0 8 0 a4 4 0 1 0 -8 0z" fill="url(#SvgjsLinearGradient4807)"></path>
            <path d="M584 -8L584 8L584 24" stroke="url(#SvgjsLinearGradient4807)" stroke-width="2.67"></path>
            <path d="M580 24 a4 4 0 1 0 8 0 a4 4 0 1 0 -8 0z" fill="url(#SvgjsLinearGradient4807)"></path>
            <path d="M920 104L904 120L904 136M920 88L904 104M872 -8L888 8L888 24L904 40L904 56L904 72L920 88L920 104L920 120L920 136" stroke="url(#SvgjsLinearGradient4807)" stroke-width="2.67"></path>
            <path d="M916 136 a4 4 0 1 0 8 0 a4 4 0 1 0 -8 0zM900 136 a4 4 0 1 0 8 0 a4 4 0 1 0 -8 0zM900 104 a4 4 0 1 0 8 0 a4 4 0 1 0 -8 0z" fill="url(#SvgjsLinearGradient4807)"></path>
            <path d="M568 8L568 24L568 40L568 56L568 72M568 -8L568 8L552 24" stroke="url(#SvgjsLinearGradient4807)" stroke-width="2.67"></path>
            <path d="M548 24 a4 4 0 1 0 8 0 a4 4 0 1 0 -8 0zM564 72 a4 4 0 1 0 8 0 a4 4 0 1 0 -8 0z" fill="url(#SvgjsLinearGradient4807)"></path>
            <path d="M920 56L936 72M936 88L952 104M888 -8L904 8L904 24L920 40L920 56L920 72L936 88L936 104L936 120L936 136" stroke="url(#SvgjsLinearGradient4807)" stroke-width="2.67"></path>
            <path d="M932 136 a4 4 0 1 0 8 0 a4 4 0 1 0 -8 0zM932 72 a4 4 0 1 0 8 0 a4 4 0 1 0 -8 0zM948 104 a4 4 0 1 0 8 0 a4 4 0 1 0 -8 0z" fill="url(#SvgjsLinearGradient4807)"></path>
            <path d="M536 40L552 56M552 -8L552 8L536 24L536 40L536 56" stroke="url(#SvgjsLinearGradient4807)" stroke-width="2.67"></path>
            <path d="M532 56 a4 4 0 1 0 8 0 a4 4 0 1 0 -8 0zM548 56 a4 4 0 1 0 8 0 a4 4 0 1 0 -8 0z" fill="url(#SvgjsLinearGradient4807)"></path>
            <path d="M904 -8L920 8L920 24" stroke="url(#SvgjsLinearGradient4807)" stroke-width="2.67"></path>
            <path d="M916 24 a4 4 0 1 0 8 0 a4 4 0 1 0 -8 0z" fill="url(#SvgjsLinearGradient4807)"></path>
            <path d="M536 88L520 104L520 120L520 136M520 56L504 72L504 88M536 104L552 120L552 136M536 -8L536 8L520 24L520 40L520 56L520 72L536 88L536 104L536 120" stroke="url(#SvgjsLinearGradient4807)" stroke-width="2.67"></path>
            <path d="M532 120 a4 4 0 1 0 8 0 a4 4 0 1 0 -8 0zM516 136 a4 4 0 1 0 8 0 a4 4 0 1 0 -8 0zM500 88 a4 4 0 1 0 8 0 a4 4 0 1 0 -8 0zM548 136 a4 4 0 1 0 8 0 a4 4 0 1 0 -8 0z" fill="url(#SvgjsLinearGradient4807)"></path>
            <path d="M968 104L968 120L968 136M936 40L936 56M952 72L952 88M920 -8L936 8L936 24L936 40L952 56L952 72L968 88L968 104L952 120L952 136" stroke="url(#SvgjsLinearGradient4807)" stroke-width="2.67"></path>
            <path d="M948 136 a4 4 0 1 0 8 0 a4 4 0 1 0 -8 0zM964 136 a4 4 0 1 0 8 0 a4 4 0 1 0 -8 0zM932 56 a4 4 0 1 0 8 0 a4 4 0 1 0 -8 0zM948 88 a4 4 0 1 0 8 0 a4 4 0 1 0 -8 0z" fill="url(#SvgjsLinearGradient4807)"></path>
            <path d="M520 -8L520 8L504 24" stroke="url(#SvgjsLinearGradient4807)" stroke-width="2.67"></path>
            <path d="M500 24 a4 4 0 1 0 8 0 a4 4 0 1 0 -8 0z" fill="url(#SvgjsLinearGradient4807)"></path>
            <path d="M936 -8L952 8L952 24L952 40" stroke="url(#SvgjsLinearGradient4807)" stroke-width="2.67"></path>
            <path d="M948 40 a4 4 0 1 0 8 0 a4 4 0 1 0 -8 0z" fill="url(#SvgjsLinearGradient4807)"></path>
            <path d="M488 88L488 104M488 40L504 56M504 -8L504 8L488 24L488 40L488 56L488 72L488 88L504 104" stroke="url(#SvgjsLinearGradient4807)" stroke-width="2.67"></path>
            <path d="M500 104 a4 4 0 1 0 8 0 a4 4 0 1 0 -8 0zM484 104 a4 4 0 1 0 8 0 a4 4 0 1 0 -8 0zM500 56 a4 4 0 1 0 8 0 a4 4 0 1 0 -8 0z" fill="url(#SvgjsLinearGradient4807)"></path>
            <path d="M952 -8L968 8L968 24L968 40L968 56L968 72L984 88L984 104" stroke="url(#SvgjsLinearGradient4807)" stroke-width="2.67"></path>
            <path d="M980 104 a4 4 0 1 0 8 0 a4 4 0 1 0 -8 0z" fill="url(#SvgjsLinearGradient4807)"></path>
            <path d="M488 -8L488 8" stroke="url(#SvgjsLinearGradient4807)" stroke-width="2.67"></path>
            <path d="M484 8 a4 4 0 1 0 8 0 a4 4 0 1 0 -8 0z" fill="url(#SvgjsLinearGradient4807)"></path>
            <path d="M968 -8L984 8L984 24L984 40L984 56" stroke="url(#SvgjsLinearGradient4807)" stroke-width="2.67"></path>
            <path d="M980 56 a4 4 0 1 0 8 0 a4 4 0 1 0 -8 0z" fill="url(#SvgjsLinearGradient4807)"></path>
            <path d="M472 24L456 40M472 8L456 24M472 -8L472 8L472 24L472 40L472 56L472 72L472 88L472 104L472 120L472 136" stroke="url(#SvgjsLinearGradient4807)" stroke-width="2.67"></path>
            <path d="M468 136 a4 4 0 1 0 8 0 a4 4 0 1 0 -8 0zM452 40 a4 4 0 1 0 8 0 a4 4 0 1 0 -8 0zM452 24 a4 4 0 1 0 8 0 a4 4 0 1 0 -8 0z" fill="url(#SvgjsLinearGradient4807)"></path>
            <path d="M1000 40L1016 56L1016 72M1000 24L1016 40M1000 88L1016 104M984 -8L1000 8L1000 24L1000 40L1000 56L1000 72L1000 88L1000 104L1000 120L1000 136" stroke="url(#SvgjsLinearGradient4807)" stroke-width="2.67"></path>
            <path d="M996 136 a4 4 0 1 0 8 0 a4 4 0 1 0 -8 0zM1012 72 a4 4 0 1 0 8 0 a4 4 0 1 0 -8 0zM1012 40 a4 4 0 1 0 8 0 a4 4 0 1 0 -8 0zM1012 104 a4 4 0 1 0 8 0 a4 4 0 1 0 -8 0z" fill="url(#SvgjsLinearGradient4807)"></path>
            <path d="M1032 40L1048 56L1048 72L1048 88L1048 104M1016 8L1016 24M1000 -8L1016 8L1032 24L1032 40L1032 56L1032 72L1032 88" stroke="url(#SvgjsLinearGradient4807)" stroke-width="2.67"></path>
            <path d="M1028 88 a4 4 0 1 0 8 0 a4 4 0 1 0 -8 0zM1044 104 a4 4 0 1 0 8 0 a4 4 0 1 0 -8 0zM1012 24 a4 4 0 1 0 8 0 a4 4 0 1 0 -8 0z" fill="url(#SvgjsLinearGradient4807)"></path>
            <path d="M456 72L440 88M456 104L456 120L456 136M440 56L440 72L424 88L424 104L424 120M440 -8L440 8L440 24L440 40L440 56L456 72L456 88L456 104L440 120" stroke="url(#SvgjsLinearGradient4807)" stroke-width="2.67"></path>
            <path d="M436 120 a4 4 0 1 0 8 0 a4 4 0 1 0 -8 0zM436 88 a4 4 0 1 0 8 0 a4 4 0 1 0 -8 0zM452 136 a4 4 0 1 0 8 0 a4 4 0 1 0 -8 0zM420 120 a4 4 0 1 0 8 0 a4 4 0 1 0 -8 0z" fill="url(#SvgjsLinearGradient4807)"></path>
            <path d="M1048 24L1048 40M1016 -8L1032 8L1048 24L1064 40L1064 56L1064 72L1064 88L1064 104L1064 120" stroke="url(#SvgjsLinearGradient4807)" stroke-width="2.67"></path>
            <path d="M1060 120 a4 4 0 1 0 8 0 a4 4 0 1 0 -8 0zM1044 40 a4 4 0 1 0 8 0 a4 4 0 1 0 -8 0z" fill="url(#SvgjsLinearGradient4807)"></path>
            <path d="M424 -8L424 8L424 24L424 40L424 56" stroke="url(#SvgjsLinearGradient4807)" stroke-width="2.67"></path>
            <path d="M420 56 a4 4 0 1 0 8 0 a4 4 0 1 0 -8 0z" fill="url(#SvgjsLinearGradient4807)"></path>
            <path d="M1080 72L1096 88L1096 104L1096 120M1032 -8L1048 8L1064 24L1080 40L1080 56L1080 72L1080 88L1080 104" stroke="url(#SvgjsLinearGradient4807)" stroke-width="2.67"></path>
            <path d="M1076 104 a4 4 0 1 0 8 0 a4 4 0 1 0 -8 0zM1092 120 a4 4 0 1 0 8 0 a4 4 0 1 0 -8 0z" fill="url(#SvgjsLinearGradient4807)"></path>
            <path d="M392 56L408 72M408 -8L408 8L408 24L408 40L392 56L392 72L392 88" stroke="url(#SvgjsLinearGradient4807)" stroke-width="2.67"></path>
            <path d="M388 88 a4 4 0 1 0 8 0 a4 4 0 1 0 -8 0zM404 72 a4 4 0 1 0 8 0 a4 4 0 1 0 -8 0z" fill="url(#SvgjsLinearGradient4807)"></path>
            <path d="M1048 -8L1064 8" stroke="url(#SvgjsLinearGradient4807)" stroke-width="2.67"></path>
            <path d="M1060 8 a4 4 0 1 0 8 0 a4 4 0 1 0 -8 0z" fill="url(#SvgjsLinearGradient4807)"></path>
            <path d="M392 -8L392 8" stroke="url(#SvgjsLinearGradient4807)" stroke-width="2.67"></path>
            <path d="M388 8 a4 4 0 1 0 8 0 a4 4 0 1 0 -8 0z" fill="url(#SvgjsLinearGradient4807)"></path>
            <path d="M1064 -8L1080 8L1080 24L1096 40" stroke="url(#SvgjsLinearGradient4807)" stroke-width="2.67"></path>
            <path d="M1092 40 a4 4 0 1 0 8 0 a4 4 0 1 0 -8 0z" fill="url(#SvgjsLinearGradient4807)"></path>
            <path d="M376 -8L376 8" stroke="url(#SvgjsLinearGradient4807)" stroke-width="2.67"></path>
            <path d="M372 8 a4 4 0 1 0 8 0 a4 4 0 1 0 -8 0z" fill="url(#SvgjsLinearGradient4807)"></path>
        </g>
    </g>
    <defs>
        <mask id="SvgjsMask4806">
            <rect width="1440" height="560" fill="#ffffff"></rect>
        </mask>
        <linearGradient x1="720" y1="0" x2="720" y2="162.4" gradientUnits="userSpaceOnUse" id="SvgjsLinearGradient4807">
            <stop stop-color="rgba(194, 123, 160, 1)" offset="0"></stop>
            <stop stop-color="rgba(194, 123, 160, 1)" offset="0.38"></stop>
            <stop stop-color="rgba(95, 232, 141, 1)" offset="1"></stop>
        </linearGradient>
        <mask id="SvgjsMask4808">
            <rect width="1440" height="560" fill="white"></rect>
            <path d="M710 8 a2 2 0 1 0 4 0 a2 2 0 1 0 -4 0z" fill="black"></path>
            <path d="M726 136 a2 2 0 1 0 4 0 a2 2 0 1 0 -4 0zM726 56 a2 2 0 1 0 4 0 a2 2 0 1 0 -4 0zM726 40 a2 2 0 1 0 4 0 a2 2 0 1 0 -4 0zM742 120 a2 2 0 1 0 4 0 a2 2 0 1 0 -4 0z" fill="black"></path>
            <path d="M774 88 a2 2 0 1 0 4 0 a2 2 0 1 0 -4 0zM758 40 a2 2 0 1 0 4 0 a2 2 0 1 0 -4 0zM758 136 a2 2 0 1 0 4 0 a2 2 0 1 0 -4 0zM758 72 a2 2 0 1 0 4 0 a2 2 0 1 0 -4 0z" fill="black"></path>
            <path d="M694 40 a2 2 0 1 0 4 0 a2 2 0 1 0 -4 0zM678 56 a2 2 0 1 0 4 0 a2 2 0 1 0 -4 0zM710 56 a2 2 0 1 0 4 0 a2 2 0 1 0 -4 0z" fill="black"></path>
            <path d="M790 104 a2 2 0 1 0 4 0 a2 2 0 1 0 -4 0zM806 136 a2 2 0 1 0 4 0 a2 2 0 1 0 -4 0z" fill="black"></path>
            <path d="M662 104 a2 2 0 1 0 4 0 a2 2 0 1 0 -4 0zM662 136 a2 2 0 1 0 4 0 a2 2 0 1 0 -4 0zM646 88 a2 2 0 1 0 4 0 a2 2 0 1 0 -4 0zM646 72 a2 2 0 1 0 4 0 a2 2 0 1 0 -4 0z" fill="black"></path>
            <path d="M806 56 a2 2 0 1 0 4 0 a2 2 0 1 0 -4 0z" fill="black"></path>
            <path d="M646 8 a2 2 0 1 0 4 0 a2 2 0 1 0 -4 0z" fill="black"></path>
            <path d="M838 136 a2 2 0 1 0 4 0 a2 2 0 1 0 -4 0zM822 136 a2 2 0 1 0 4 0 a2 2 0 1 0 -4 0z" fill="black"></path>
            <path d="M646 120 a2 2 0 1 0 4 0 a2 2 0 1 0 -4 0zM630 120 a2 2 0 1 0 4 0 a2 2 0 1 0 -4 0zM646 40 a2 2 0 1 0 4 0 a2 2 0 1 0 -4 0z" fill="black"></path>
            <path d="M838 120 a2 2 0 1 0 4 0 a2 2 0 1 0 -4 0zM854 88 a2 2 0 1 0 4 0 a2 2 0 1 0 -4 0zM870 72 a2 2 0 1 0 4 0 a2 2 0 1 0 -4 0z" fill="black"></path>
            <path d="M614 120 a2 2 0 1 0 4 0 a2 2 0 1 0 -4 0zM598 104 a2 2 0 1 0 4 0 a2 2 0 1 0 -4 0zM598 72 a2 2 0 1 0 4 0 a2 2 0 1 0 -4 0z" fill="black"></path>
            <path d="M886 120 a2 2 0 1 0 4 0 a2 2 0 1 0 -4 0zM870 120 a2 2 0 1 0 4 0 a2 2 0 1 0 -4 0zM854 136 a2 2 0 1 0 4 0 a2 2 0 1 0 -4 0z" fill="black"></path>
            <path d="M582 56 a2 2 0 1 0 4 0 a2 2 0 1 0 -4 0z" fill="black"></path>
            <path d="M886 40 a2 2 0 1 0 4 0 a2 2 0 1 0 -4 0z" fill="black"></path>
            <path d="M582 24 a2 2 0 1 0 4 0 a2 2 0 1 0 -4 0z" fill="black"></path>
            <path d="M918 136 a2 2 0 1 0 4 0 a2 2 0 1 0 -4 0zM902 136 a2 2 0 1 0 4 0 a2 2 0 1 0 -4 0zM902 104 a2 2 0 1 0 4 0 a2 2 0 1 0 -4 0z" fill="black"></path>
            <path d="M550 24 a2 2 0 1 0 4 0 a2 2 0 1 0 -4 0zM566 72 a2 2 0 1 0 4 0 a2 2 0 1 0 -4 0z" fill="black"></path>
            <path d="M934 136 a2 2 0 1 0 4 0 a2 2 0 1 0 -4 0zM934 72 a2 2 0 1 0 4 0 a2 2 0 1 0 -4 0zM950 104 a2 2 0 1 0 4 0 a2 2 0 1 0 -4 0z" fill="black"></path>
            <path d="M534 56 a2 2 0 1 0 4 0 a2 2 0 1 0 -4 0zM550 56 a2 2 0 1 0 4 0 a2 2 0 1 0 -4 0z" fill="black"></path>
            <path d="M918 24 a2 2 0 1 0 4 0 a2 2 0 1 0 -4 0z" fill="black"></path>
            <path d="M534 120 a2 2 0 1 0 4 0 a2 2 0 1 0 -4 0zM518 136 a2 2 0 1 0 4 0 a2 2 0 1 0 -4 0zM502 88 a2 2 0 1 0 4 0 a2 2 0 1 0 -4 0zM550 136 a2 2 0 1 0 4 0 a2 2 0 1 0 -4 0z" fill="black"></path>
            <path d="M950 136 a2 2 0 1 0 4 0 a2 2 0 1 0 -4 0zM966 136 a2 2 0 1 0 4 0 a2 2 0 1 0 -4 0zM934 56 a2 2 0 1 0 4 0 a2 2 0 1 0 -4 0zM950 88 a2 2 0 1 0 4 0 a2 2 0 1 0 -4 0z" fill="black"></path>
            <path d="M502 24 a2 2 0 1 0 4 0 a2 2 0 1 0 -4 0z" fill="black"></path>
            <path d="M950 40 a2 2 0 1 0 4 0 a2 2 0 1 0 -4 0z" fill="black"></path>
            <path d="M502 104 a2 2 0 1 0 4 0 a2 2 0 1 0 -4 0zM486 104 a2 2 0 1 0 4 0 a2 2 0 1 0 -4 0zM502 56 a2 2 0 1 0 4 0 a2 2 0 1 0 -4 0z" fill="black"></path>
            <path d="M982 104 a2 2 0 1 0 4 0 a2 2 0 1 0 -4 0z" fill="black"></path>
            <path d="M486 8 a2 2 0 1 0 4 0 a2 2 0 1 0 -4 0z" fill="black"></path>
            <path d="M982 56 a2 2 0 1 0 4 0 a2 2 0 1 0 -4 0z" fill="black"></path>
            <path d="M470 136 a2 2 0 1 0 4 0 a2 2 0 1 0 -4 0zM454 40 a2 2 0 1 0 4 0 a2 2 0 1 0 -4 0zM454 24 a2 2 0 1 0 4 0 a2 2 0 1 0 -4 0z" fill="black"></path>
            <path d="M998 136 a2 2 0 1 0 4 0 a2 2 0 1 0 -4 0zM1014 72 a2 2 0 1 0 4 0 a2 2 0 1 0 -4 0zM1014 40 a2 2 0 1 0 4 0 a2 2 0 1 0 -4 0zM1014 104 a2 2 0 1 0 4 0 a2 2 0 1 0 -4 0z" fill="black"></path>
            <path d="M1030 88 a2 2 0 1 0 4 0 a2 2 0 1 0 -4 0zM1046 104 a2 2 0 1 0 4 0 a2 2 0 1 0 -4 0zM1014 24 a2 2 0 1 0 4 0 a2 2 0 1 0 -4 0z" fill="black"></path>
            <path d="M438 120 a2 2 0 1 0 4 0 a2 2 0 1 0 -4 0zM438 88 a2 2 0 1 0 4 0 a2 2 0 1 0 -4 0zM454 136 a2 2 0 1 0 4 0 a2 2 0 1 0 -4 0zM422 120 a2 2 0 1 0 4 0 a2 2 0 1 0 -4 0z" fill="black"></path>
            <path d="M1062 120 a2 2 0 1 0 4 0 a2 2 0 1 0 -4 0zM1046 40 a2 2 0 1 0 4 0 a2 2 0 1 0 -4 0z" fill="black"></path>
            <path d="M422 56 a2 2 0 1 0 4 0 a2 2 0 1 0 -4 0z" fill="black"></path>
            <path d="M1078 104 a2 2 0 1 0 4 0 a2 2 0 1 0 -4 0zM1094 120 a2 2 0 1 0 4 0 a2 2 0 1 0 -4 0z" fill="black"></path>
            <path d="M390 88 a2 2 0 1 0 4 0 a2 2 0 1 0 -4 0zM406 72 a2 2 0 1 0 4 0 a2 2 0 1 0 -4 0z" fill="black"></path>
            <path d="M1062 8 a2 2 0 1 0 4 0 a2 2 0 1 0 -4 0z" fill="black"></path>
            <path d="M390 8 a2 2 0 1 0 4 0 a2 2 0 1 0 -4 0z" fill="black"></path>
            <path d="M1094 40 a2 2 0 1 0 4 0 a2 2 0 1 0 -4 0z" fill="black"></path>
            <path d="M374 8 a2 2 0 1 0 4 0 a2 2 0 1 0 -4 0z" fill="black"></path>
        </mask>
    </defs>
</svg>