<svg version="1.1" id="Layer_1" xmlns="http://www.w3.org/2000/svg" xmlns:xlink="http://www.w3.org/1999/xlink" x="0px" y="0px"
	 width="100%" viewBox="0 0 128 128" enable-background="new 0 0 128 128" xml:space="preserve">
<path class="background" fill="#000000" opacity="1.000000" stroke="none" 
	d="
M1.000000,56.000000 
	C1.000000,38.333332 1.060300,21.166220 0.933351,4.000493 
	C0.914845,1.498138 1.500242,0.930377 4.000143,0.935937 
	C44.666611,1.026383 85.333397,1.026383 125.999855,0.935936 
	C128.499771,0.930377 129.069626,1.500242 129.064072,4.000143 
	C128.973618,44.666611 128.973618,85.333397 129.064072,125.999855 
	C129.069626,128.499771 128.499771,129.069626 125.999855,129.064072 
	C85.333397,128.973618 44.666611,128.973618 4.000143,129.064072 
	C1.500242,129.069626 0.922382,128.500824 0.934376,125.999687 
	C1.045473,102.833557 1.000000,79.666664 1.000000,56.000000 
z"/>
<path fill="#E1D3C8" opacity="1.000000" stroke="none" 
	d="
M108.016739,116.360657 
	C107.940590,114.287125 109.036583,113.048683 109.742188,111.645607 
	C113.051186,105.065765 113.048805,105.064568 106.352280,100.981949 
	C101.576309,98.984772 99.922264,94.543869 97.400154,91.053215 
	C95.554489,88.498787 93.648071,87.156441 90.306763,87.109848 
	C87.285515,87.761398 84.040665,86.688278 82.467682,90.536125 
	C81.962143,91.772781 79.219200,91.067589 77.487778,90.378601 
	C75.975449,91.541695 79.090607,92.624573 77.606430,93.699524 
	C76.322746,94.629272 75.535339,93.120697 74.571053,92.775032 
	C72.865814,92.163773 71.130104,89.834007 70.626350,93.999687 
	C69.151085,92.617744 67.834908,91.384834 66.645821,90.270973 
	C62.852757,94.938652 62.129272,99.906197 64.664291,105.252876 
	C64.799461,105.537956 65.049767,106.012634 64.944122,106.132446 
	C60.970230,110.639145 63.127499,116.775558 60.402473,121.839005 
	C56.741287,121.468651 54.426922,119.688393 52.979084,116.331696 
	C57.142281,107.445496 55.559597,98.895386 53.044655,90.308098 
	C52.684071,89.076874 52.874275,87.684349 52.421173,86.234756 
	C48.834881,84.933037 45.735233,83.504311 42.222172,82.250748 
	C41.961132,82.024635 42.002792,82.002235 41.989761,82.022095 
	C41.832600,81.877960 41.688473,81.713959 41.383144,81.264877 
	C40.997581,80.387344 40.613167,79.265251 40.571625,79.277809 
	C37.049702,80.342087 37.050911,80.348335 36.998486,76.293915 
	C36.992065,75.797485 36.997608,75.300911 36.997608,74.745468 
	C35.414040,73.778374 34.915104,76.948952 32.906765,75.259224 
	C36.126091,68.661331 35.280239,61.812126 33.046722,54.821434 
	C31.803169,50.929230 29.575949,50.083965 26.260111,51.403648 
	C25.111464,51.860802 24.069460,51.888935 22.537800,52.038277 
	C20.403862,54.094769 18.216423,54.802532 15.263242,54.227840 
	C14.316892,53.595394 13.736190,53.128025 13.137808,52.375862 
	C13.433215,51.883148 13.531663,51.601456 13.203733,51.174103 
	C9.819233,50.339798 7.290115,43.678104 9.669944,41.061756 
	C14.977845,35.226330 20.739849,29.803951 26.647217,24.100510 
	C28.319447,24.480555 28.819481,25.834080 29.776363,26.717333 
	C31.420153,28.234634 32.931950,27.982365 33.543442,25.861479 
	C35.323250,19.688446 40.182281,18.775803 45.805470,18.701134 
	C47.646217,19.458580 48.942265,18.458252 50.543461,18.064663 
	C51.510674,20.766047 51.357334,23.483511 49.713974,25.528957 
	C43.641197,33.087563 47.479218,41.306259 56.740818,42.463924 
	C65.101082,43.508926 72.947197,47.974125 81.579048,46.877224 
	C86.355423,46.270264 91.100105,46.240467 95.861938,45.946613 
	C101.990013,45.568443 106.918793,47.920399 111.640808,52.004227 
	C115.307678,54.348053 117.290070,57.336994 117.227379,61.765488 
	C118.611481,64.887695 118.833084,68.224571 117.552162,70.677322 
	C112.907616,79.570892 112.888031,88.328568 117.068092,97.221512 
	C119.481560,102.356102 121.043419,107.236725 117.286118,112.592667 
	C115.618324,114.970062 118.204018,118.218773 116.476593,121.062347 
	C111.973175,122.304260 109.962708,119.651070 108.016739,116.360657 
z"/>
<path fill="#8B695A" opacity="1.000000" stroke="none" 
	d="
M46.255051,18.568771 
	C43.488457,19.861492 40.851040,20.779551 38.279705,21.855532 
	C36.997917,22.391901 35.116009,22.723337 35.558159,24.749241 
	C36.309593,28.192265 34.809250,29.724937 31.552700,29.977863 
	C27.693512,30.277592 27.630066,27.300219 27.030933,24.368908 
	C26.418518,12.950124 36.608765,2.486996 49.480232,5.512245 
	C45.640461,7.802490 41.584080,9.426456 39.709385,13.712612 
	C52.079308,11.693867 53.480480,11.765771 57.874554,14.875540 
	C53.290710,14.364696 49.922993,16.527399 46.255051,18.568771 
z"/>
<path fill="#D1BCAD" opacity="1.000000" stroke="none" 
	d="
M41.977539,82.453537 
	C46.063877,80.833412 49.325218,82.100441 51.958241,85.761978 
	C52.235680,89.465965 51.356228,92.895889 52.898758,96.194595 
	C53.232723,96.908783 52.948448,98.249290 52.454807,98.956322 
	C49.992199,102.483467 49.136391,106.114037 50.925571,110.212631 
	C51.228893,110.907478 51.011806,111.855003 49.490723,112.054718 
	C44.977547,113.319931 42.973301,110.655640 41.028976,107.365494 
	C45.367706,99.127121 43.487160,90.996422 41.977539,82.453537 
z"/>
<path fill="#D1BCAD" opacity="1.000000" stroke="none" 
	d="
M90.087311,87.413315 
	C93.748589,84.030945 96.087196,84.925774 98.301270,89.285362 
	C100.285141,93.191704 103.321564,96.563499 105.956421,100.503250 
	C103.912025,102.675713 105.544899,105.119919 104.983948,107.200539 
	C104.558434,108.778786 106.083420,110.785049 103.514313,112.041321 
	C99.242073,112.770729 97.336517,110.262047 95.359573,107.216202 
	C96.388771,103.208015 100.752266,99.460159 98.987930,96.153816 
	C97.272331,92.938812 93.154572,90.585373 90.087311,87.413315 
z"/>
<path fill="#BBA495" opacity="1.000000" stroke="none" 
	d="
M117.445724,62.052605 
	C115.399902,59.017036 113.736603,55.931526 112.016113,52.503006 
	C115.056618,47.813408 114.181137,43.070587 113.210136,38.277657 
	C121.405876,41.695381 123.798882,54.310925 117.445724,62.052605 
z"/>
<path fill="#BBA495" opacity="1.000000" stroke="none" 
	d="
M14.941970,54.475212 
	C16.911839,52.961376 18.922234,51.847878 21.729567,52.042400 
	C23.479515,54.179955 22.884668,56.545990 22.991495,58.818020 
	C23.202425,63.304146 19.279943,63.537395 16.557856,64.932724 
	C15.923574,65.257858 13.427771,61.080360 13.984479,60.546062 
	C15.738405,58.862762 14.715433,56.777363 14.941970,54.475212 
z"/>
<path fill="#8B695A" opacity="1.000000" stroke="none" 
	d="
M107.613815,116.199829 
	C110.424828,117.646545 112.910538,119.310883 115.741409,121.051689 
	C115.030937,126.185814 111.122520,125.033562 107.730782,124.935875 
	C105.740982,124.878555 105.899742,123.303482 106.067566,122.072334 
	C106.327263,120.167297 106.867332,118.300476 107.613815,116.199829 
z"/>
<path fill="#8B695A" opacity="1.000000" stroke="none" 
	d="
M40.625473,107.199387 
	C43.440498,108.640526 45.926983,110.294785 48.755325,112.032799 
	C48.047966,117.189560 44.130890,116.036316 40.732269,115.938667 
	C38.741585,115.881470 38.895111,114.306068 39.064957,113.072594 
	C39.327549,111.165520 39.872013,109.297241 40.625473,107.199387 
z"/>
<path fill="#8B695A" opacity="1.000000" stroke="none" 
	d="
M95.064301,107.340027 
	C97.986549,107.943176 99.997124,110.226257 102.786285,111.951614 
	C102.544235,117.102203 98.412857,116.851830 95.772766,115.723000 
	C92.035011,114.124825 94.347519,110.555672 95.064301,107.340027 
z"/>
<path fill="#8C6A5B" opacity="1.000000" stroke="none" 
	d="
M52.593658,116.204712 
	C55.206261,117.771599 57.501289,119.557701 59.909424,121.659836 
	C59.076225,127.094078 54.988354,124.995201 52.438354,124.688377 
	C49.828762,124.374390 51.197742,121.470436 51.245956,119.685921 
	C51.275566,118.590111 51.912094,117.510696 52.593658,116.204712 
z"/>
<path class="details"  fill="#70686E" opacity="1.000000" stroke="none" 
	d="
M12.990801,51.353729 
	C13.948257,49.888718 15.182697,49.860172 16.636915,50.104557 
	C16.036734,51.538719 14.700540,51.378674 13.449780,52.001968 
	C13.076622,51.929127 13.033115,51.767185 12.990801,51.353729 
z"/>
<path class="details" fill="#D1BCAD" opacity="1.000000" stroke="none" 
	d="
M41.165733,81.240234 
	C41.499111,81.122681 41.712765,81.330757 41.919823,81.822998 
	C41.687660,81.861526 41.398586,81.681099 41.165733,81.240234 
z"/>
<path class="details" fill="#B9A394" opacity="1.000000" stroke="none" 
	d="
M43.908623,22.166019 
	C45.401093,20.989450 47.242558,19.495687 48.543701,21.218147 
	C49.528542,22.521889 47.956848,24.258303 46.943043,25.506275 
	C45.281597,27.551487 43.388142,29.345718 40.284298,29.871840 
	C38.593266,26.889435 41.154964,25.442415 42.713966,23.221550 
	C42.965813,22.945873 43.004135,22.993498 42.978550,22.977345 
	C43.257420,22.768824 43.571350,22.593418 43.908623,22.166019 
z"/>
<path class="details" fill="#9C7E70" opacity="1.000000" stroke="none" 
	d="
M42.615685,22.979862 
	C43.107105,25.541908 40.843822,27.032944 40.005569,29.549143 
	C37.345249,30.076637 37.862968,28.442585 38.442772,27.099781 
	C39.208549,25.326267 40.363110,23.786470 42.615685,22.979862 
z"/>
<path class="details" fill="#47424E" opacity="1.000000" stroke="none" 
	d="
M29.180904,33.892761 
	C28.065353,35.741371 26.803610,36.795544 25.086145,35.379604 
	C24.236755,34.679340 24.344208,33.725834 25.338072,32.907166 
	C26.938381,31.588957 28.232225,31.477285 29.180904,33.892761 
z"/>
<path class="details" fill="#9C7E70" opacity="1.000000" stroke="none" 
	d="
M43.696754,22.013596 
	C44.570419,22.638916 44.198185,22.921986 43.184845,22.991081 
	C43.125679,22.684231 43.298397,22.407269 43.696754,22.013596 
z"/>
<path class="details" fill="#000000" opacity="1.000000" stroke="none" 
	d="
M39.217560,14.755287 
	C38.931053,15.156547 38.717953,15.259354 38.504848,15.362162 
	C38.411682,15.126638 38.318512,14.891115 38.225346,14.655592 
	C38.580551,14.589339 38.935760,14.523087 39.217560,14.755287 
z"/>
</svg>